# xmcd
# 
# Track frame offsets:
#     150
#     15675
#     33849
#     50431
#     67346
#     82110
#     98854
#     112463
#     131442
#     148098
#     162886
#     180257
#     198701
#     212546
# 
# Disc length: 3026
# 
# Revision: 0
# Processed by: cddbd v1.5.1PL0 Copyright (c) Steve Scherf et al.
# Submitted via: BonkEnc v1.0beta2
# 
DISCID=cd0bd00e
DTITLE=Brent Moyer - Keep Going On
DYEAR=2002
DGENRE=Country
TTITLE0=Keep Going On
TTITLE1=Fait Plaisir
TTITLE2=You Talk Too Much
TTITLE3=Sunset Blvd.
TTITLE4=First Taste Of Summer
TTITLE5=Heaven's Not A Place, It's You
TTITLE6=Come On And Do It To Me
TTITLE7=What Can I Do?
TTITLE8=Desperate Cowgirl
TTITLE9=Don't Go Changing
TTITLE10=Vacation
TTITLE11=Voyage In My Mind
TTITLE12=Drinkin' My Thinkin'
TTITLE13=When Love Gets A 'Hold Of Your Heart 
EXTD=
EXTT0=
EXTT1=
EXTT2=
EXTT3=
EXTT4=
EXTT5=
EXTT6=
EXTT7=
EXTT8=
EXTT9=
EXTT10=
EXTT11=
EXTT12=
EXTT13=
PLAYORDER=
